# ProBuilder 4.5.2
# https://unity3d.com/unity/features/worldbuilding/probuilder
# 28.05.2022 18:20:13

mtllib ./Crate.mtl
o Crate

g Crate
v 0.5 -0.5 0.5000001
v -0.5 -0.5 0.5000001
v 0.5 0.5 0.5000001
v -0.5 0.5 0.5000001
v -0.5 -0.5 -0.4999999
v -0.5 0.5 -0.4999999
v 0.5 -0.5 -0.4999999
v 0.5 0.5 -0.4999999

vt 0.5 -0.5
vt -0.5 -0.5
vt 0.5 0.5
vt -0.5 0.5
vt -0.4999999 -0.5
vt -0.4999999 0.5
vt 0.4999999 -0.5
vt 0.4999999 0.5
vt -0.5 -0.4999999
vt 0.5 -0.4999999

vn 0 0 1
vn -1 0 0
vn 0 0 -1
vn 1 0 0
vn 0 1 0
vn 0 -1 0

usemtl ProBuilderDefault
f 3/3/1 4/4/1 2/2/1 1/1/1
f 4/3/2 6/6/2 5/5/2 2/1/2
f 6/3/3 8/4/3 7/2/3 5/1/3
f 8/8/4 3/4/4 1/2/4 7/7/4
f 8/9/5 6/10/5 4/3/5 3/4/5
f 1/3/6 2/4/6 5/9/6 7/10/6

